<?xml version="1.0" standalone="no"?>
<!DOCTYPE svg PUBLIC "-//W3C//DTD SVG 1.1//EN" "http://www.w3.org/Graphics/SVG/1.1/DTD/svg11.dtd">
<!--Generator: Xara Designer (www.xara.com), SVG filter version: 3.0.2.3-->
<svg stroke-width="0.501" stroke-linejoin="bevel" fill-rule="evenodd" xmlns:xlink="http://www.w3.org/1999/xlink" xmlns="http://www.w3.org/2000/svg" version="1.1" overflow="visible" width="1440pt" height="810pt" viewBox="0 0 1440 810">
 <defs>
  <marker id="DefaultArrow2" markerUnits="strokeWidth" viewBox="0 0 1 1" markerWidth="1" markerHeight="1" overflow="visible" orient="auto">
   <!-- REF_ARROW_STRAIGHT (-2) -->
   <g transform="scale(0.0092592592)">
    <!-- 1/108 -->
    <path d="M -9 54 L -9 -54 L 117 0 z"/>
   </g>
  </marker>
  <marker id="DefaultArrow3" markerUnits="strokeWidth" viewBox="0 0 1 1" markerWidth="1" markerHeight="1" overflow="visible" orient="auto">
   <!-- REF_ARROW_ANGLED -->
   <g transform="scale(0.0092592592)">
    <path d="M -27 54 L -9 0 L -27 -54 L 135 0 z"/>
   </g>
  </marker>
  <marker id="DefaultArrow4" markerUnits="strokeWidth" viewBox="0 0 1 1" markerWidth="1" markerHeight="1" overflow="visible" orient="auto">
   <!-- REF_ARROW_ROUNDED -->
   <g transform="scale(0.0092592592)">
    <path d="M -9,0 L -9,-45 C -9,-51.708 2.808,-56.580 9,-54 L 117,-9 C 120.916,-7.369 126.000,-4.242 126,0 C 126,4.242 120.916,7.369 117,9 L 9,54 C 2.808,56.580 -9,51.708 -9,45 z"/>
   </g>
  </marker>
  <marker id="DefaultArrow5" markerUnits="strokeWidth" viewBox="0 0 1 1" markerWidth="1" markerHeight="1" overflow="visible" orient="auto">
   <!-- REF_ARROW_SPOT -->
   <g transform="scale(0.0092592592)">
    <path d="M -54, 0 C -54,29.807 -29.807,54 0,54 C 29.807,54 54,29.807 54,0 C 54,-29.807 29.807,-54 0,-54 C -29.807,-54 -54,-29.807 -54,0 z"/>
   </g>
  </marker>
  <marker id="DefaultArrow6" markerUnits="strokeWidth" viewBox="0 0 1 1" markerWidth="1" markerHeight="1" overflow="visible" orient="auto">
   <!-- REF_ARROW_DIAMOND -->
   <g transform="scale(0.0092592592)">
    <path d="M -63,0 L 0,63 L 63,0 L 0,-63 z"/>
   </g>
  </marker>
  <marker id="DefaultArrow7" markerUnits="strokeWidth" viewBox="0 0 1 1" markerWidth="1" markerHeight="1" overflow="visible" orient="auto">
   <!-- REF_ARROW_FEATHER -->
   <g transform="scale(0.0092592592)">
    <path d="M 18,-54 L 108,-54 L 63,0 L 108,54 L 18, 54 L -36,0 z"/>
   </g>
  </marker>
  <marker id="DefaultArrow8" markerUnits="strokeWidth" viewBox="0 0 1 1" markerWidth="1" markerHeight="1" overflow="visible" orient="auto">
   <!-- REF_ARROW_FEATHER2 -->
   <g transform="scale(0.0092592592)">
    <path d="M -36,0 L 18,-54 L 54,-54 L 18,-18 L 27,-18 L 63,-54 L 99,-54 L 63,-18 L 72,-18 L 108,-54 L 144,-54 L 90,0 L 144,54 L 108,54 L 72,18 L 63,18 L 99,54 L 63,54 L 27,18 L 18,18 L 54,54 L 18,54 z"/>
   </g>
  </marker>
  <marker id="DefaultArrow9" markerUnits="strokeWidth" viewBox="0 0 1 1" markerWidth="1" markerHeight="1" overflow="visible" orient="auto">
   <!-- REF_ARROW_HOLLOWDIAMOND -->
   <g transform="scale(0.0092592592)">
    <path d="M 0,45 L -45,0 L 0, -45 L 45, 0 z M 0, 63 L-63, 0 L 0, -63 L 63, 0 z"/>
   </g>
  </marker>
  <filter id="StainedFilter">
   <feBlend mode="multiply" in2="BackgroundImage" in="SourceGraphic" result="blend"/>
   <feComposite in="blend" in2="SourceAlpha" operator="in" result="comp"/>
  </filter>
  <filter id="BleachFilter">
   <feBlend mode="screen" in2="BackgroundImage" in="SourceGraphic" result="blend"/>
   <feComposite in="blend" in2="SourceAlpha" operator="in" result="comp"/>
  </filter>
  <filter id="InvertTransparencyBitmapFilter">
   <feComponentTransfer>
    <feFuncR type="gamma" amplitude="1.055" exponent=".416666666" offset="-0.055"/>
    <feFuncG type="gamma" amplitude="1.055" exponent=".416666666" offset="-0.055"/>
    <feFuncB type="gamma" amplitude="1.055" exponent=".416666666" offset="-0.055"/>
   </feComponentTransfer>
   <feComponentTransfer>
    <feFuncR type="linear" slope="-1" intercept="1"/>
    <feFuncG type="linear" slope="-1" intercept="1"/>
    <feFuncB type="linear" slope="-1" intercept="1"/>
    <feFuncA type="linear" slope="1" intercept="0"/>
   </feComponentTransfer>
   <feComponentTransfer>
    <feFuncR type="gamma" amplitude="1" exponent="2.4" offset="0"/>
    <feFuncG type="gamma" amplitude="1" exponent="2.4" offset="0"/>
    <feFuncB type="gamma" amplitude="1" exponent="2.4" offset="0"/>
   </feComponentTransfer>
  </filter>
 </defs>
 <g id="Document" fill="none" stroke="black" font-family="Times New Roman" font-size="16" transform="scale(1 -1)">
  <g id="Spread" transform="translate(0 -810)">
   <g id="Layer 1"/>
   <g id="SVG Document">
    <g id="Group" stroke="none">
     <path d="M -0.177,809.866 L -0.177,-0.133 L 1439.82,-0.133 L 1439.82,809.866 L -0.177,809.866 Z" stroke-linejoin="miter" marker-start="none" marker-end="none" stroke-miterlimit="79.8403193612775"/>
     <g id="Group_1">
      <path d="M 673.085,749.935 L 567.214,810.133 L 707.311,810.133 L 673.085,749.935 Z" stroke-opacity="0.392157" fill="#ff0000" stroke-linejoin="miter" marker-start="none" marker-end="none" fill-opacity="0.392157"/>
      <path d="M 535.265,450.197 L 535.265,810.133 M 535.265,450.197 L 1440.18,450.197"/>
      <path d="M 1039.86,450.197 L 885.958,587.604 L 1017.54,734.977 L 1171.44,597.569 L 1039.86,450.197 Z" stroke-opacity="0.392157" fill="#fffe7f" stroke-linejoin="miter" marker-start="none" marker-end="none" fill-opacity="0.392157"/>
      <path d="M 1440.18,527.202 L 1345.04,538.378 L 1369.12,743.282 L 1440.18,734.933 L 1440.18,527.202 Z" stroke-opacity="0.392157" fill="#7f4100" stroke-linejoin="miter" marker-start="none" marker-end="none" fill-opacity="0.392157"/>
      <path d="M 1074.74,608.775 L 920.844,746.183 L 977.942,810.133 L 1145.86,810.133 L 1206.32,756.148 L 1074.74,608.775 Z" stroke-opacity="0.392157" fill="#00bf02" stroke-linejoin="miter" marker-start="none" marker-end="none" fill-opacity="0.392157"/>
      <path d="M 1163.31,655.829 L 1075.57,810.133 L 1302.84,810.133 L 1335.05,753.484 L 1163.31,655.829 Z" stroke-opacity="0.392157" fill="#ff0000" stroke-linejoin="miter" marker-start="none" marker-end="none" fill-opacity="0.392157"/>
      <path d="M 1277.8,727.334 L 1270.12,810.133 L 1440.18,810.133 L 1440.18,742.397 L 1277.8,727.334 Z" stroke-opacity="0.392157" fill="#bf00bd" stroke-linejoin="miter" marker-start="none" marker-end="none" fill-opacity="0.392157"/>
      <path d="M 1307.49,514.533 L 1135.98,612.6 L 1238.39,791.703 L 1409.9,693.638 L 1307.49,514.533 Z" stroke-opacity="0.392157" fill="#fffc00" stroke-linejoin="miter" marker-start="none" marker-end="none" fill-opacity="0.392157"/>
      <path d="M 1246.05,776.923 L 1216.54,810.133 L 1283.42,810.133 L 1246.05,776.923 Z" stroke-opacity="0.392157" fill="#0003ff" stroke-linejoin="miter" marker-start="none" marker-end="none" fill-opacity="0.392157"/>
      <path d="M 543.358,542.204 L 389.461,679.613 L 505.998,810.133 L 539.919,810.133 L 674.942,689.577 L 543.358,542.204 Z" stroke-opacity="0.392157" fill="#fffe7f" stroke-linejoin="miter" marker-start="none" marker-end="none" fill-opacity="0.392157"/>
      <path d="M 992.742,599.603 L 796.524,622.655 L 818.549,810.133 L 968.926,810.133 L 1016.82,804.507 L 992.742,599.603 Z" stroke-opacity="0.392157" fill="#ffffff" stroke-linejoin="miter" marker-start="none" marker-end="none" fill-opacity="0.392157"/>
      <path d="M 681.238,570.03 L 527.342,707.438 L 619.034,810.133 L 708.966,810.133 L 812.822,717.404 L 681.238,570.03 Z" stroke-opacity="0.392157" fill="#00bf02" stroke-linejoin="miter" marker-start="none" marker-end="none" fill-opacity="0.392157"/>
      <path d="M 1056.12,430.656 L 924.889,578.342 L 1079.11,715.382 L 1210.34,567.694 L 1056.12,430.656 Z" stroke-opacity="0.392157" fill="#0003ff" stroke-linejoin="miter" marker-start="none" marker-end="none" fill-opacity="0.392157"/>
      <path d="M 782.92,658.946 L 782.92,810.133 L 1272.67,810.133 L 1272.67,658.946 L 782.92,658.946 Z" fill="none" stroke-linejoin="miter" marker-start="none" marker-end="none"/>
      <path d="M 1024.9,-0.133 L 530.693,311.454 L 845.099,810.133 M 1440.18,489.544 L 931.692,810.133"/>
      <path d="M 1148.55,336.754 L 1091.65,535.065 L 1281.56,589.552 L 1338.46,391.241 L 1148.55,336.754 Z" stroke-opacity="0.392157" fill="#fffe7f" stroke-linejoin="miter" marker-start="none" marker-end="none" fill-opacity="0.392157"/>
      <path d="M 797.266,408.383 L 643.579,532.531 L 773.223,693.02 L 926.911,568.874 L 797.266,408.383 Z" stroke-opacity="0.392157" fill="#7f4100" stroke-linejoin="miter" marker-start="none" marker-end="none" fill-opacity="0.392157"/>
      <path d="M 1034.47,221.216 L 977.568,419.528 L 1167.47,474.014 L 1224.37,275.703 L 1034.47,221.216 Z" stroke-opacity="0.392157" fill="#00bf02" stroke-linejoin="miter" marker-start="none" marker-end="none" fill-opacity="0.392157"/>
      <path d="M 1058.07,275.348 L 860.704,284.338 L 870.095,490.435 L 1067.45,481.449 L 1058.07,275.348 Z" stroke-opacity="0.392157" fill="#ff0000" stroke-linejoin="miter" marker-start="none" marker-end="none" fill-opacity="0.392157"/>
      <path d="M 842.993,305.878 L 659.05,399.321 L 748.531,575.464 L 932.474,482.021 L 842.993,305.878 Z" stroke-opacity="0.392157" fill="#bf00bd" stroke-linejoin="miter" marker-start="none" marker-end="none" fill-opacity="0.392157"/>
      <path d="M 744.921,371.411 L 652.138,545.838 L 834.286,642.727 L 927.069,468.3 L 744.921,371.411 Z" stroke-opacity="0.392157" fill="#fffc00" stroke-linejoin="miter" marker-start="none" marker-end="none" fill-opacity="0.392157"/>
      <path d="M 761.581,194.55 L 729.338,389.469 L 932.883,423.141 L 965.131,228.22 L 761.581,194.55 Z" stroke-opacity="0.392157" fill="#0003ff" stroke-linejoin="miter" marker-start="none" marker-end="none" fill-opacity="0.392157"/>
      <path d="M 1440.18,32.271 L 1411.62,131.809 L 1440.18,140.003 L 1440.18,32.271 Z" stroke-opacity="0.392157" fill="#fffe7f" stroke-linejoin="miter" marker-start="none" marker-end="none" fill-opacity="0.392157"/>
      <path d="M 1297.52,51.219 L 1143.83,175.368 L 1273.47,335.86 L 1427.16,211.711 L 1297.52,51.219 Z" stroke-opacity="0.392157" fill="#ffffff" stroke-linejoin="miter" marker-start="none" marker-end="none" fill-opacity="0.392157"/>
      <path d="M 1226.36,-0.133 L 1196.01,105.646 L 1385.92,160.133 L 1431.9,-0.133 L 1226.36,-0.133 Z" stroke-opacity="0.392157" fill="#00bf02" stroke-linejoin="miter" marker-start="none" marker-end="none" fill-opacity="0.392157"/>
      <path d="M 1026.86,-0.133 L 1036.19,204.769 L 1233.55,195.78 L 1224.63,-0.133 L 1026.86,-0.133 Z" stroke-opacity="0.392157" fill="#ff0000" stroke-linejoin="miter" marker-start="none" marker-end="none" fill-opacity="0.392157"/>
      <path d="M 993.675,44.848 L 809.733,138.29 L 899.214,314.432 L 1083.16,220.991 L 993.675,44.848 Z" stroke-opacity="0.392157" fill="#ffffff" stroke-linejoin="miter" marker-start="none" marker-end="none" fill-opacity="0.392157"/>
      <path d="M 1049.8,111.053 L 957.021,285.48 L 1139.17,382.369 L 1231.95,207.942 L 1049.8,111.053 Z" stroke-opacity="0.392157" fill="#fffc00" stroke-linejoin="miter" marker-start="none" marker-end="none" fill-opacity="0.392157"/>
      <path d="M 1245.37,220.426 L 1213.12,415.345 L 1416.67,449.015 L 1440.18,306.906 L 1440.18,252.651 L 1245.37,220.426 Z" stroke-opacity="0.392157" fill="#0003ff" stroke-linejoin="miter" marker-start="none" marker-end="none" fill-opacity="0.392157"/>
      <path d="M 1297.25,132.678 L 882.964,393.873 L 973.287,537.134 L 1387.57,275.939 L 1297.25,132.678 Z" fill="none" stroke-linejoin="miter" marker-start="none" marker-end="none"/>
      <path d="M 261.66,236.591 L 228.949,431.433 L 432.415,465.592 L 465.125,270.751 L 261.66,236.591 Z" stroke-opacity="0.392157" fill="#00bf02" stroke-linejoin="miter" marker-start="none" marker-end="none" fill-opacity="0.392157"/>
      <path d="M 557.134,-0.133 L 526.757,180.816 L 730.223,214.974 L 762.933,20.133 L 642.212,-0.133 L 557.134,-0.133 Z" stroke-opacity="0.392157" fill="#fffe7f" stroke-linejoin="miter" marker-start="none" marker-end="none" fill-opacity="0.392157"/>
      <path d="M 610.292,115.366 L 432.014,200.514 L 520.932,386.683 L 699.209,301.535 L 610.292,115.366 Z" stroke-opacity="0.392157" fill="#ffffff" stroke-linejoin="miter" marker-start="none" marker-end="none" fill-opacity="0.392157"/>
      <path d="M 639.05,174.812 L 606.34,369.654 L 809.806,403.812 L 842.516,208.971 L 639.05,174.812 Z" stroke-opacity="0.392157" fill="#00bf02" stroke-linejoin="miter" marker-start="none" marker-end="none" fill-opacity="0.392157"/>
      <path d="M 584.397,396.448 L 491.198,570.652 L 673.113,667.976 L 766.312,493.773 L 584.397,396.448 Z" stroke-opacity="0.392157" fill="#ff0000" stroke-linejoin="miter" marker-start="none" marker-end="none" fill-opacity="0.392157"/>
      <path d="M 453.609,421.758 L 289.996,547.441 L 410.351,704.118 L 573.965,578.434 L 453.609,421.758 Z" stroke-opacity="0.392157" fill="#ffffff" stroke-linejoin="miter" marker-start="none" marker-end="none" fill-opacity="0.392157"/>
      <path d="M 529.533,293.125 L 332.148,301.642 L 341.042,507.765 L 538.427,499.247 L 529.533,293.125 Z" stroke-opacity="0.392157" fill="#fffc00" stroke-linejoin="miter" marker-start="none" marker-end="none" fill-opacity="0.392157"/>
      <path d="M 391.652,22.524 L 334.277,220.698 L 524.052,275.639 L 581.425,77.463 L 391.652,22.524 Z" stroke-opacity="0.392157" fill="#0003ff" stroke-linejoin="miter" marker-start="none" marker-end="none" fill-opacity="0.392157"/>
      <path d="M 1440.18,250.426 L 1363.2,319.151 L 1440.18,405.359 L 1440.18,250.426 Z" stroke-opacity="0.392157" fill="#fffe7f" stroke-linejoin="miter" marker-start="none" marker-end="none" fill-opacity="0.392157"/>
      <path d="M 1440.18,440.153 L 1398.09,477.73 L 1440.18,524.865 L 1440.18,440.153 Z" stroke-opacity="0.392157" fill="#00bf02" stroke-linejoin="miter" marker-start="none" marker-end="none" fill-opacity="0.392157"/>
      <path d="M 1260.17,390.493 L 1260.17,559.851 L 1440.18,559.851 L 1440.18,390.493 L 1260.17,390.493 Z" fill="none" stroke-linejoin="miter" marker-start="none" marker-end="none"/>
      <path d="M 859.017,-0.133 L 830.782,70.014 L 1014.06,143.786 L 1071.99,-0.133 L 859.017,-0.133 Z" stroke-opacity="0.392157" fill="#fffe7f" stroke-linejoin="miter" marker-start="none" marker-end="none" fill-opacity="0.392157"/>
      <path d="M 671.74,-0.133 L 679.236,11.403 L 696.99,-0.133 L 671.74,-0.133 Z" stroke-opacity="0.392157" fill="#7f4100" stroke-linejoin="miter" marker-start="none" marker-end="none" fill-opacity="0.392157"/>
      <path d="M 626.919,-0.133 L 628.091,2.917 L 636.03,-0.133 L 626.919,-0.133 Z" stroke-opacity="0.392157" fill="#bf00bd" stroke-linejoin="miter" marker-start="none" marker-end="none" fill-opacity="0.392157"/>
      <path d="M 589.312,-0.133 L 706.456,78.663 L 759.457,-0.133 L 589.312,-0.133 Z" stroke-opacity="0.392157" fill="#fffc00" stroke-linejoin="miter" marker-start="none" marker-end="none" fill-opacity="0.392157"/>
      <path d="M 1064.05,-0.133 L 1002.51,68.79 L 1156.41,206.197 L 1287.99,58.825 L 1221.96,-0.133 L 1064.05,-0.133 Z" stroke-opacity="0.392157" fill="#fffe7f" stroke-linejoin="miter" marker-start="none" marker-end="none" fill-opacity="0.392157"/>
      <path d="M 1217.22,-0.133 L 1311.86,106.365 L 1431.71,-0.133 L 1217.22,-0.133 Z" stroke-opacity="0.392157" fill="#0003ff" stroke-linejoin="miter" marker-start="none" marker-end="none" fill-opacity="0.392157"/>
      <path d="M 1147.97,-0.133 L 1147.97,86.927 L 1440.18,86.927 L 1440.18,-0.133 L 1147.97,-0.133 Z" fill="none" stroke-linejoin="miter" marker-start="none" marker-end="none"/>
     </g>
    </g>
   </g>
  </g>
 </g>
</svg>
