<?xml version="1.0" encoding="UTF-8" standalone="no"?>
<!-- Created with Inkscape (http://www.inkscape.org/) -->

<svg
   width="33.866665mm"
   height="11.617355mm"
   viewBox="0 0 33.866664 11.617355"
   version="1.1"
   id="svg41056"
   xmlns="http://www.w3.org/2000/svg"
   xmlns:svg="http://www.w3.org/2000/svg">
  <defs
     id="defs41053">
    <pattern
       id="EMFhbasepattern"
       patternUnits="userSpaceOnUse"
       width="6"
       height="6"
       x="0"
       y="0" />
  </defs>
  <g
     id="layer1"
     transform="translate(-7.6340304,-56.819299)">
    <g
       id="g41149"
       transform="matrix(0.17479818,0,0,0.17479818,36.553316,49.703366)">
      <path
         style="fill:#ffcc00;fill-opacity:1;fill-rule:evenodd;stroke:none;stroke-width:0.264583"
         d="m -115.35409,73.740366 c 0,-12.909475 10.48945,-23.387438 23.413082,-23.387438 11.889388,0 21.718601,8.868278 23.215399,20.339461 l -23.626564,0.0016 v 0.0091 c -1.669568,0.01659 -3.014157,1.372735 -3.015342,3.040867 0,1.680377 1.363961,3.042843 3.046179,3.042843 0.03281,-0.0028 0.06563,-0.0055 0.09844,-0.0091 h 23.498868 c -1.492448,11.476712 -11.324037,20.350125 -23.216981,20.350125 -12.923631,0 -23.413081,-10.477965 -23.413081,-23.387438 z"
         id="path41120" />
      <path
         style="fill:#800080;fill-opacity:1;fill-rule:evenodd;stroke:none;stroke-width:0.264583"
         d="m -68.512119,74.958293 v -2.536164 c 0.658259,-12.343951 10.898248,-22.162402 23.419408,-22.162402 12.94576,0 23.453,10.495735 23.453,23.427325 0,12.93159 -10.50724,23.427325 -23.453,23.427325 -12.51879,0 -22.757193,-9.814502 -23.419408,-22.156084 z m 28.268378,-1.466726 c 0,-2.11755 -1.83956,-3.836627 -4.10572,-3.836627 -2.26615,0 -4.10571,1.719077 -4.10571,3.836627 0,2.117551 1.83956,3.836628 4.10571,3.836628 2.26616,0 4.10572,-1.719077 4.10572,-3.836628 z"
         id="path41122" />
      <path
         style="fill:#008000;fill-opacity:1;fill-rule:evenodd;stroke:none;stroke-width:0.264583"
         d="M -44.374361,97.213897 V 77.328195 c 0.008,0 0.0166,0 0.0249,0 2.26616,0 4.10572,-1.719077 4.10572,-3.836628 0,-2.11755 -1.83956,-3.836627 -4.10572,-3.836627 -0.008,0 -0.0166,3.94e-4 -0.0249,3.94e-4 V 40.709425 h 25.84765 v 56.504472 z"
         id="path41124" />
      <path
         style="fill:#00ff00;fill-opacity:1;fill-rule:evenodd;stroke:none;stroke-width:0.264583"
         d="m -18.522761,73.927556 c 0,-12.909473 10.4894496,-23.387437 23.4130796,-23.387437 12.9236204,0 23.4130704,10.477964 23.4130704,23.387437 0,12.909475 -10.48945,23.387439 -23.4130704,23.387439 -12.92363,0 -23.4130796,-10.477964 -23.4130796,-23.387439 z m 27.5187896,0 c 0,-2.117548 -1.83956,-3.836628 -4.10571,-3.836628 -2.26616,0 -4.10572004,1.71908 -4.10572004,3.836628 0,2.11755 1.83956004,3.83663 4.10572004,3.83663 2.26615,0 4.10571,-1.71908 4.10571,-3.83663 z"
         id="path41126" />
      <path
         style="fill:#ff0000;fill-opacity:1;fill-rule:evenodd;stroke:none;stroke-width:0.264583"
         d="m -161.85289,73.976527 c 0,-12.909475 10.48945,-23.387438 23.41308,-23.387438 12.92362,0 23.41308,10.477963 23.41308,23.387438 0,12.909474 -10.48946,23.387439 -23.41308,23.387439 -12.92363,0 -23.41308,-10.477965 -23.41308,-23.387439 z m 26.25763,0.07583 c 0,-2.117551 -1.83957,-3.836628 -4.10572,-3.836628 -2.26615,0 -4.10572,1.719077 -4.10572,3.836628 0,2.11755 1.83957,3.836627 4.10572,3.836627 2.26615,0 4.10572,-1.719077 4.10572,-3.836627 z"
         id="path41128" />
      <path
         style="fill:#800000;fill-opacity:1;fill-rule:evenodd;stroke:none;stroke-width:0.264583"
         d="M -165.44386,107.17096 V 50.666492 h 25.84765 v 19.550811 c -0.0348,-7.91e-4 -0.07,-0.0016 -0.10477,-0.0016 -2.26615,0 -4.10572,1.719077 -4.10572,3.836628 0,2.11755 1.83957,3.836627 4.10572,3.836627 0.0348,0 0.0696,-3.94e-4 0.10477,-0.0012 v 29.283172 z"
         id="path41130" />
    </g>
  </g>
</svg>
